<mxfile host="app.diagrams.net" modified="2024-03-06T15:03:44.769Z" agent="Mozilla/5.0 (Windows NT 10.0; Win64; x64) AppleWebKit/537.36 (KHTML, like Gecko) Chrome/122.0.0.0 Safari/537.36" etag="0t3XWHHbMLFdRhAOTJ_L" version="24.0.2" type="device">
  <diagram name="第 1 页" id="cWM4mXXyRaTB6RjHqZ_W">
    <mxGraphModel dx="1434" dy="738" grid="1" gridSize="10" guides="1" tooltips="1" connect="1" arrows="1" fold="1" page="1" pageScale="1" pageWidth="827" pageHeight="1169" math="0" shadow="0">
      <root>
        <mxCell id="0" />
        <mxCell id="1" parent="0" />
        <mxCell id="MLEnEpJJth-1Ur134Y9R-13" style="edgeStyle=orthogonalEdgeStyle;rounded=0;orthogonalLoop=1;jettySize=auto;html=1;entryX=0;entryY=0.5;entryDx=0;entryDy=0;" edge="1" parent="1" source="MLEnEpJJth-1Ur134Y9R-2" target="MLEnEpJJth-1Ur134Y9R-9">
          <mxGeometry relative="1" as="geometry" />
        </mxCell>
        <mxCell id="MLEnEpJJth-1Ur134Y9R-20" value="fuse meta" style="edgeLabel;html=1;align=center;verticalAlign=middle;resizable=0;points=[];" vertex="1" connectable="0" parent="MLEnEpJJth-1Ur134Y9R-13">
          <mxGeometry x="-0.4" y="1" relative="1" as="geometry">
            <mxPoint x="10" y="11" as="offset" />
          </mxGeometry>
        </mxCell>
        <mxCell id="MLEnEpJJth-1Ur134Y9R-38" style="edgeStyle=orthogonalEdgeStyle;rounded=0;orthogonalLoop=1;jettySize=auto;html=1;exitX=0.75;exitY=0;exitDx=0;exitDy=0;entryX=0.5;entryY=0;entryDx=0;entryDy=0;" edge="1" parent="1" source="MLEnEpJJth-1Ur134Y9R-2" target="MLEnEpJJth-1Ur134Y9R-5">
          <mxGeometry relative="1" as="geometry">
            <Array as="points">
              <mxPoint x="140" y="130" />
              <mxPoint x="575" y="130" />
            </Array>
          </mxGeometry>
        </mxCell>
        <mxCell id="MLEnEpJJth-1Ur134Y9R-39" value="read/write block 1" style="edgeLabel;html=1;align=center;verticalAlign=middle;resizable=0;points=[];" vertex="1" connectable="0" parent="MLEnEpJJth-1Ur134Y9R-38">
          <mxGeometry x="-0.0835" y="-3" relative="1" as="geometry">
            <mxPoint as="offset" />
          </mxGeometry>
        </mxCell>
        <mxCell id="MLEnEpJJth-1Ur134Y9R-2" value="client1" style="rounded=1;whiteSpace=wrap;html=1;fillColor=#d5e8d4;strokeColor=#82b366;" vertex="1" parent="1">
          <mxGeometry x="50" y="170" width="120" height="60" as="geometry" />
        </mxCell>
        <mxCell id="MLEnEpJJth-1Ur134Y9R-3" value="client2" style="rounded=1;whiteSpace=wrap;html=1;fillColor=#d5e8d4;strokeColor=#82b366;" vertex="1" parent="1">
          <mxGeometry x="50" y="350" width="120" height="60" as="geometry" />
        </mxCell>
        <mxCell id="MLEnEpJJth-1Ur134Y9R-4" value="client3" style="rounded=1;whiteSpace=wrap;html=1;fillColor=#d5e8d4;strokeColor=#82b366;" vertex="1" parent="1">
          <mxGeometry x="50" y="470" width="120" height="60" as="geometry" />
        </mxCell>
        <mxCell id="MLEnEpJJth-1Ur134Y9R-15" value="" style="edgeStyle=orthogonalEdgeStyle;rounded=0;orthogonalLoop=1;jettySize=auto;html=1;" edge="1" parent="1" source="MLEnEpJJth-1Ur134Y9R-5" target="MLEnEpJJth-1Ur134Y9R-9">
          <mxGeometry relative="1" as="geometry" />
        </mxCell>
        <mxCell id="MLEnEpJJth-1Ur134Y9R-16" style="edgeStyle=orthogonalEdgeStyle;rounded=0;orthogonalLoop=1;jettySize=auto;html=1;exitX=0;exitY=0.5;exitDx=0;exitDy=0;entryX=1;entryY=0.5;entryDx=0;entryDy=0;" edge="1" parent="1" source="MLEnEpJJth-1Ur134Y9R-5" target="MLEnEpJJth-1Ur134Y9R-11">
          <mxGeometry relative="1" as="geometry">
            <Array as="points">
              <mxPoint x="450" y="200" />
              <mxPoint x="450" y="380" />
            </Array>
          </mxGeometry>
        </mxCell>
        <mxCell id="MLEnEpJJth-1Ur134Y9R-17" style="edgeStyle=orthogonalEdgeStyle;rounded=0;orthogonalLoop=1;jettySize=auto;html=1;entryX=1;entryY=0.5;entryDx=0;entryDy=0;" edge="1" parent="1" source="MLEnEpJJth-1Ur134Y9R-5" target="MLEnEpJJth-1Ur134Y9R-12">
          <mxGeometry relative="1" as="geometry">
            <Array as="points">
              <mxPoint x="450" y="200" />
              <mxPoint x="450" y="500" />
            </Array>
          </mxGeometry>
        </mxCell>
        <mxCell id="MLEnEpJJth-1Ur134Y9R-18" style="edgeStyle=orthogonalEdgeStyle;rounded=0;orthogonalLoop=1;jettySize=auto;html=1;" edge="1" parent="1" source="MLEnEpJJth-1Ur134Y9R-5" target="MLEnEpJJth-1Ur134Y9R-8">
          <mxGeometry relative="1" as="geometry" />
        </mxCell>
        <mxCell id="MLEnEpJJth-1Ur134Y9R-23" value="destage to s3" style="edgeLabel;html=1;align=center;verticalAlign=middle;resizable=0;points=[];" vertex="1" connectable="0" parent="MLEnEpJJth-1Ur134Y9R-18">
          <mxGeometry x="-0.0636" y="1" relative="1" as="geometry">
            <mxPoint as="offset" />
          </mxGeometry>
        </mxCell>
        <mxCell id="MLEnEpJJth-1Ur134Y9R-5" value="storage1" style="rounded=1;whiteSpace=wrap;html=1;fillColor=#e1d5e7;strokeColor=#9673a6;" vertex="1" parent="1">
          <mxGeometry x="520" y="170" width="110" height="60" as="geometry" />
        </mxCell>
        <mxCell id="MLEnEpJJth-1Ur134Y9R-6" value="storage2" style="rounded=1;whiteSpace=wrap;html=1;fillColor=#e1d5e7;strokeColor=#9673a6;" vertex="1" parent="1">
          <mxGeometry x="520" y="350" width="120" height="60" as="geometry" />
        </mxCell>
        <mxCell id="MLEnEpJJth-1Ur134Y9R-32" value="" style="edgeStyle=orthogonalEdgeStyle;rounded=0;orthogonalLoop=1;jettySize=auto;html=1;dashed=1;" edge="1" parent="1" source="MLEnEpJJth-1Ur134Y9R-7" target="MLEnEpJJth-1Ur134Y9R-12">
          <mxGeometry relative="1" as="geometry" />
        </mxCell>
        <mxCell id="MLEnEpJJth-1Ur134Y9R-33" value="heartbeat" style="edgeLabel;html=1;align=center;verticalAlign=middle;resizable=0;points=[];" vertex="1" connectable="0" parent="MLEnEpJJth-1Ur134Y9R-32">
          <mxGeometry x="-0.2462" relative="1" as="geometry">
            <mxPoint as="offset" />
          </mxGeometry>
        </mxCell>
        <mxCell id="MLEnEpJJth-1Ur134Y9R-7" value="storage3" style="rounded=1;whiteSpace=wrap;html=1;fillColor=#e1d5e7;strokeColor=#9673a6;" vertex="1" parent="1">
          <mxGeometry x="520" y="470" width="120" height="60" as="geometry" />
        </mxCell>
        <mxCell id="MLEnEpJJth-1Ur134Y9R-24" style="edgeStyle=orthogonalEdgeStyle;rounded=0;orthogonalLoop=1;jettySize=auto;html=1;entryX=0.5;entryY=1;entryDx=0;entryDy=0;" edge="1" parent="1" source="MLEnEpJJth-1Ur134Y9R-8" target="MLEnEpJJth-1Ur134Y9R-5">
          <mxGeometry relative="1" as="geometry" />
        </mxCell>
        <mxCell id="MLEnEpJJth-1Ur134Y9R-25" value="s3 to local" style="edgeLabel;html=1;align=center;verticalAlign=middle;resizable=0;points=[];" vertex="1" connectable="0" parent="MLEnEpJJth-1Ur134Y9R-24">
          <mxGeometry x="0.3959" y="-2" relative="1" as="geometry">
            <mxPoint x="31" y="2" as="offset" />
          </mxGeometry>
        </mxCell>
        <mxCell id="MLEnEpJJth-1Ur134Y9R-8" value="Amazon S3" style="sketch=0;outlineConnect=0;fontColor=#232F3E;gradientColor=none;strokeColor=#ffffff;fillColor=#232F3E;dashed=0;verticalLabelPosition=middle;verticalAlign=bottom;align=center;html=1;whiteSpace=wrap;fontSize=10;fontStyle=1;spacing=3;shape=mxgraph.aws4.productIcon;prIcon=mxgraph.aws4.s3;" vertex="1" parent="1">
          <mxGeometry x="720" y="230" width="80" height="100" as="geometry" />
        </mxCell>
        <mxCell id="MLEnEpJJth-1Ur134Y9R-9" value="meta1" style="rounded=1;whiteSpace=wrap;html=1;fillColor=#fff2cc;strokeColor=#d6b656;" vertex="1" parent="1">
          <mxGeometry x="280" y="170" width="120" height="60" as="geometry" />
        </mxCell>
        <mxCell id="MLEnEpJJth-1Ur134Y9R-11" value="meta2" style="rounded=1;whiteSpace=wrap;html=1;fillColor=#fff2cc;strokeColor=#d6b656;" vertex="1" parent="1">
          <mxGeometry x="280" y="350" width="120" height="60" as="geometry" />
        </mxCell>
        <mxCell id="MLEnEpJJth-1Ur134Y9R-27" style="edgeStyle=orthogonalEdgeStyle;rounded=0;orthogonalLoop=1;jettySize=auto;html=1;exitX=0.5;exitY=1;exitDx=0;exitDy=0;" edge="1" parent="1" source="MLEnEpJJth-1Ur134Y9R-12" target="MLEnEpJJth-1Ur134Y9R-26">
          <mxGeometry relative="1" as="geometry" />
        </mxCell>
        <mxCell id="MLEnEpJJth-1Ur134Y9R-36" style="edgeStyle=orthogonalEdgeStyle;rounded=0;orthogonalLoop=1;jettySize=auto;html=1;exitX=0.5;exitY=0;exitDx=0;exitDy=0;entryX=0.5;entryY=1;entryDx=0;entryDy=0;dashed=1;shape=link;" edge="1" parent="1" source="MLEnEpJJth-1Ur134Y9R-12" target="MLEnEpJJth-1Ur134Y9R-11">
          <mxGeometry relative="1" as="geometry" />
        </mxCell>
        <mxCell id="MLEnEpJJth-1Ur134Y9R-37" value="sync" style="edgeLabel;html=1;align=center;verticalAlign=middle;resizable=0;points=[];" vertex="1" connectable="0" parent="MLEnEpJJth-1Ur134Y9R-36">
          <mxGeometry x="0.1333" relative="1" as="geometry">
            <mxPoint as="offset" />
          </mxGeometry>
        </mxCell>
        <mxCell id="MLEnEpJJth-1Ur134Y9R-12" value="meta3" style="rounded=1;whiteSpace=wrap;html=1;fillColor=#fff2cc;strokeColor=#d6b656;" vertex="1" parent="1">
          <mxGeometry x="280" y="470" width="120" height="60" as="geometry" />
        </mxCell>
        <mxCell id="MLEnEpJJth-1Ur134Y9R-19" style="edgeStyle=orthogonalEdgeStyle;rounded=0;orthogonalLoop=1;jettySize=auto;html=1;exitX=0.5;exitY=1;exitDx=0;exitDy=0;entryX=0.5;entryY=0;entryDx=0;entryDy=0;" edge="1" parent="1" source="MLEnEpJJth-1Ur134Y9R-2" target="MLEnEpJJth-1Ur134Y9R-6">
          <mxGeometry relative="1" as="geometry">
            <mxPoint x="530" y="350" as="targetPoint" />
            <Array as="points">
              <mxPoint x="110" y="300" />
              <mxPoint x="580" y="300" />
            </Array>
          </mxGeometry>
        </mxCell>
        <mxCell id="MLEnEpJJth-1Ur134Y9R-22" value="read/write block 2" style="edgeLabel;html=1;align=center;verticalAlign=middle;resizable=0;points=[];" vertex="1" connectable="0" parent="MLEnEpJJth-1Ur134Y9R-19">
          <mxGeometry x="0.0043" y="1" relative="1" as="geometry">
            <mxPoint as="offset" />
          </mxGeometry>
        </mxCell>
        <mxCell id="MLEnEpJJth-1Ur134Y9R-26" value="tikv cluster" style="strokeWidth=2;html=1;shape=mxgraph.flowchart.database;whiteSpace=wrap;" vertex="1" parent="1">
          <mxGeometry x="310" y="594.5" width="60" height="60" as="geometry" />
        </mxCell>
        <mxCell id="MLEnEpJJth-1Ur134Y9R-31" style="edgeStyle=orthogonalEdgeStyle;rounded=0;orthogonalLoop=1;jettySize=auto;html=1;" edge="1" parent="1" source="MLEnEpJJth-1Ur134Y9R-29" target="MLEnEpJJth-1Ur134Y9R-2">
          <mxGeometry relative="1" as="geometry" />
        </mxCell>
        <mxCell id="MLEnEpJJth-1Ur134Y9R-29" value="" style="image;aspect=fixed;html=1;points=[];align=center;fontSize=12;image=img/lib/azure2/other/Azure_Cloud_Shell.svg;" vertex="1" parent="1">
          <mxGeometry x="76" y="50" width="68" height="47.199999999999996" as="geometry" />
        </mxCell>
        <mxCell id="MLEnEpJJth-1Ur134Y9R-30" value="echo &quot;hello word&quot; &amp;gt;&amp;gt; hello.txt" style="text;html=1;align=center;verticalAlign=middle;whiteSpace=wrap;rounded=0;" vertex="1" parent="1">
          <mxGeometry x="160" y="50" width="170" height="30" as="geometry" />
        </mxCell>
        <mxCell id="MLEnEpJJth-1Ur134Y9R-40" style="edgeStyle=orthogonalEdgeStyle;rounded=0;orthogonalLoop=1;jettySize=auto;html=1;exitX=0.75;exitY=1;exitDx=0;exitDy=0;entryX=0.5;entryY=1;entryDx=0;entryDy=0;" edge="1" parent="1" source="MLEnEpJJth-1Ur134Y9R-4" target="MLEnEpJJth-1Ur134Y9R-4">
          <mxGeometry relative="1" as="geometry" />
        </mxCell>
      </root>
    </mxGraphModel>
  </diagram>
</mxfile>
